<svg width="12" height="12" viewBox="0 0 12 12" fill="none" xmlns="http://www.w3.org/2000/svg">
<path d="M10.1733 0H1.82667C1.3422 0 0.877585 0.192452 0.535018 0.535018C0.192452 0.877585 0 1.3422 0 1.82667V10.1733C0 10.6578 0.192452 11.1224 0.535018 11.465C0.877585 11.8075 1.3422 12 1.82667 12H10.1733C10.6578 12 11.1224 11.8075 11.465 11.465C11.8075 11.1224 12 10.6578 12 10.1733V1.82667C12 1.3422 11.8075 0.877585 11.465 0.535018C11.1224 0.192452 10.6578 0 10.1733 0ZM2.66667 5.33333H1.33333V4H2.66667V5.33333ZM1.33333 6.66667H2.66667V8H1.33333V6.66667ZM10.6667 5.33333H9.33333V4H10.6667V5.33333ZM9.33333 6.66667H10.6667V8H9.33333V6.66667ZM10.6667 1.82667V2.66667H9.33333V1.33333H10.1733C10.2381 1.33333 10.3023 1.34609 10.3621 1.37089C10.422 1.39568 10.4764 1.43202 10.5222 1.47783C10.568 1.52364 10.6043 1.57802 10.6291 1.63788C10.6539 1.69773 10.6667 1.76188 10.6667 1.82667ZM1.82667 1.33333H2.66667V2.66667H1.33333V1.82667C1.33333 1.76188 1.34609 1.69773 1.37089 1.63788C1.39568 1.57802 1.43202 1.52364 1.47783 1.47783C1.52364 1.43202 1.57802 1.39568 1.63788 1.37089C1.69773 1.34609 1.76188 1.33333 1.82667 1.33333ZM1.33333 10.1733V9.33333H2.66667V10.6667H1.82667C1.76188 10.6667 1.69773 10.6539 1.63788 10.6291C1.57802 10.6043 1.52364 10.568 1.47783 10.5222C1.43202 10.4764 1.39568 10.422 1.37089 10.3621C1.34609 10.3023 1.33333 10.2381 1.33333 10.1733ZM10.6667 10.1733C10.6667 10.3042 10.6147 10.4297 10.5222 10.5222C10.4297 10.6147 10.3042 10.6667 10.1733 10.6667H9.33333V9.33333H10.6667V10.1733Z" fill="#78828A"/>
</svg>
